<svg width="990" height="969" viewBox="0 0 990 969" fill="none" xmlns="http://www.w3.org/2000/svg">
<path fill-rule="evenodd" clip-rule="evenodd" d="M492.105 132.122C578.955 130.904 661.921 145.7 741.001 176.508C770.105 189.193 799.356 201.484 828.753 213.382C833.54 216.568 838.326 219.756 843.113 222.942C845.517 224.085 846.315 225.679 845.506 227.722C831.646 221.623 817.022 217.298 801.63 214.748C755.404 206.031 708.603 201.479 661.227 201.091C533.438 197.138 405.798 199.415 278.309 207.919C235.298 209.911 193.815 217.649 153.861 231.136C147.479 232.047 141.097 232.047 134.715 231.136C178.71 205.08 227.639 191.879 281.5 191.531C310.2 190.205 338.918 189.294 367.656 188.799C400.367 170.47 433.873 153.171 468.172 136.902C476.222 134.751 484.199 133.159 492.105 132.122Z" fill="#F3F2F0"/>
<path fill-rule="evenodd" clip-rule="evenodd" d="M490.509 146.133C564.757 142.782 634.959 154.929 701.114 182.571C702.518 184.368 703.051 186.355 702.71 188.533C672 191.654 641.154 192.979 610.171 192.508C542.585 191.691 475.043 190.145 407.544 187.871C428.008 175.619 448.749 163.694 469.768 152.096C476.702 149.663 483.615 147.676 490.509 146.133Z" fill="#0B0B0B"/>
<path fill-rule="evenodd" clip-rule="evenodd" d="M509.655 295.006C514.442 295.006 519.228 295.006 524.015 295.006C524.682 311.637 523.884 328.184 521.621 344.65C508.58 358.22 494.487 358.891 479.341 346.662C481.667 343.362 484.592 340.454 488.116 337.941C495.436 344.891 502.35 344.891 508.858 337.941C509.655 323.637 509.922 309.325 509.655 295.006Z" fill="#F2F2F0"/>
<path fill-rule="evenodd" clip-rule="evenodd" d="M571.88 307.644C571.88 311.014 571.88 314.384 571.88 317.754C582.285 317.391 592.39 317.765 602.194 318.877C591.557 318.877 580.921 318.877 570.284 318.877C569.785 314.898 570.318 311.154 571.88 307.644Z" fill="#757473"/>
<path fill-rule="evenodd" clip-rule="evenodd" d="M220.871 294.998C234.808 294.494 248.636 295.165 262.354 297.009C274.707 301.453 279.758 309.272 277.511 320.468C275.649 329.181 269.534 334.319 259.163 335.884C251.203 336.553 243.226 336.777 235.231 336.554C235.231 342.363 235.231 348.172 235.231 353.981C230.444 353.981 225.658 353.981 220.871 353.981C220.871 334.319 220.871 314.66 220.871 294.998Z" fill="#F3F2F0"/>
<path fill-rule="evenodd" clip-rule="evenodd" d="M235.231 303.866C242.837 303.436 250.283 304.132 257.568 305.956C261.373 307.995 262.969 311.012 262.354 315.012C262.962 318.948 261.367 321.966 257.568 324.069C250.141 324.764 242.696 324.997 235.231 324.765C235.231 317.799 235.231 310.833 235.231 303.866Z" fill="#0D0D0D"/>
<path fill-rule="evenodd" clip-rule="evenodd" d="M413.926 1.52609C550.46 -4.40925 685.012 6.96822 817.585 35.6613C860.652 46.1847 902.666 59.1881 943.629 74.6729C945.869 169.545 946.931 264.52 946.82 359.597C939.906 359.597 932.992 359.597 926.078 359.597C924.668 277.868 923.339 196.13 922.09 114.381C921.82 105.521 921.022 96.6964 919.696 87.909C815.512 50.2516 707.019 28.6559 594.216 23.1218C481.339 15.9813 369.123 20.6251 257.568 37.0546C190.82 47.5055 126.468 64.6901 64.5135 88.6057C61.6687 178.827 60.0732 269.157 59.727 359.597C52.2808 359.597 44.8363 359.597 37.3901 359.597C38.1879 264.856 38.9856 170.114 39.7834 75.3696C125.64 42.1693 215.254 20.5735 308.624 10.5824C343.94 7.304 379.04 4.28478 413.926 1.52609Z" fill="#F3F2F0"/>
<path fill-rule="evenodd" clip-rule="evenodd" d="M717.069 296.41C734.619 296.41 752.17 296.41 769.72 296.41C769.72 299.534 769.72 302.659 769.72 305.782C763.338 305.782 756.956 305.782 750.574 305.782C750.574 321.848 750.574 337.915 750.574 353.981C745.788 353.981 741.001 353.981 736.215 353.981C736.215 337.915 736.215 321.848 736.215 305.782C729.833 305.782 723.451 305.782 717.069 305.782C717.069 302.659 717.069 299.534 717.069 296.41Z" fill="#F7F6F4"/>
<path fill-rule="evenodd" clip-rule="evenodd" d="M305.432 295.001C319.875 294.589 334.234 295.259 348.511 297.011C361.916 303.081 365.905 312.24 360.477 324.491C357.661 328.476 353.672 331.381 348.511 333.204C353.632 339.799 358.95 346.279 364.466 352.641C359.226 354.192 353.907 354.416 348.511 353.311C343.921 347.608 339.134 342.022 334.151 336.555C329.48 335.236 324.693 334.79 319.792 335.215C319.792 341.471 319.792 347.726 319.792 353.982C315.005 353.982 310.219 353.982 305.432 353.982C305.432 334.321 305.432 314.661 305.432 295.001Z" fill="#F2F1EF"/>
<path fill-rule="evenodd" clip-rule="evenodd" d="M319.792 306.22C327.927 305.828 335.905 306.432 343.724 308.03C350.106 312.453 350.106 316.876 343.724 321.299C335.905 322.897 327.927 323.5 319.792 323.108C319.792 317.479 319.792 311.85 319.792 306.22Z" fill="#121211"/>
<path fill-rule="evenodd" clip-rule="evenodd" d="M418.712 293.602C451.179 294.584 464.741 308.459 459.397 335.23C448.151 353.719 430.867 359.313 407.544 352.016C389.743 343.305 383.627 330.548 389.196 313.745C395.487 303.299 405.325 296.585 418.712 293.602Z" fill="#F3F2F0"/>
<path fill-rule="evenodd" clip-rule="evenodd" d="M418.712 306.239C439.706 305.761 448.481 314.653 445.038 332.918C437.185 345.924 425.75 348.966 410.735 342.045C400.817 332.125 400.284 321.828 409.139 311.154C412.222 309.105 415.413 307.468 418.712 306.239Z" fill="#0B0B0B"/>
<path fill-rule="evenodd" clip-rule="evenodd" d="M662.822 293.602C676.998 293.054 688.698 297.5 697.923 306.942C694.466 309.984 691.01 313.026 687.552 316.069C680.467 308.097 671.159 305.522 659.631 308.346C649.369 313.54 645.38 321.262 647.665 331.514C652.988 343.851 662.827 347.829 677.182 343.45C681.447 342.044 685.17 339.938 688.35 337.131C698.072 341.447 698.603 346.362 689.946 351.874C670.742 361.696 653.458 359.59 638.092 345.556C624.484 319.916 632.728 302.597 662.822 293.602Z" fill="#F4F3F1"/>
<path fill-rule="evenodd" clip-rule="evenodd" d="M571.879 307.644C570.317 312.032 569.784 316.712 570.284 321.685C580.921 321.685 591.557 321.685 602.194 321.685C602.194 324.961 602.194 328.238 602.194 331.514C592.089 331.514 581.984 331.514 571.879 331.514C571.879 336.194 571.879 340.876 571.879 345.556C584.112 345.556 596.343 345.556 608.576 345.556C608.576 349.301 608.576 353.044 608.576 356.789C591.025 356.789 573.475 356.789 555.924 356.789C555.924 336.663 555.924 316.536 555.924 296.41C572.944 296.41 589.961 296.41 606.98 296.41C606.98 300.155 606.98 303.899 606.98 307.644C595.28 307.644 583.579 307.644 571.879 307.644Z" fill="#EDECEA"/>
<path fill-rule="evenodd" clip-rule="evenodd" d="M109.187 398.914C140.033 398.914 170.88 398.914 201.726 398.914C201.726 407.339 201.726 415.763 201.726 424.188C191.089 424.188 180.453 424.188 169.816 424.188C169.816 479.887 169.816 535.584 169.816 591.283C159.712 591.283 149.606 591.283 139.502 591.283C139.502 535.584 139.502 479.887 139.502 424.188C129.397 424.188 119.292 424.188 109.187 424.188C109.187 415.763 109.187 407.339 109.187 398.914Z" fill="#F5F4F2"/>
<path fill-rule="evenodd" clip-rule="evenodd" d="M441.049 398.914C471.895 398.914 502.742 398.914 533.587 398.914C533.587 407.339 533.587 415.763 533.587 424.188C523.483 424.188 513.377 424.188 503.273 424.188C503.273 479.887 503.273 535.584 503.273 591.283C493.169 591.283 483.063 591.283 472.959 591.283C472.959 535.584 472.959 479.887 472.959 424.188C462.322 424.188 451.686 424.188 441.049 424.188C441.049 415.763 441.049 407.339 441.049 398.914Z" fill="#F4F3F1"/>
<path fill-rule="evenodd" clip-rule="evenodd" d="M93.2321 432.613C93.2321 440.571 93.2321 448.527 93.2321 456.484C83.6592 456.484 74.0862 456.484 64.5133 456.484C65.1371 446.064 64.3394 435.767 62.1201 425.593C53.8363 420.956 45.0611 420.254 35.7945 423.486C33.8783 424.754 32.5476 426.391 31.8057 428.401C30.7415 436.826 30.7415 445.251 31.8057 453.676C33.3055 460.062 36.4965 465.678 41.3787 470.525C56.212 481.238 70.5714 492.471 84.4569 504.225C87.9574 508.513 90.6171 513.195 92.4344 518.267C95.8487 535.673 95.3174 552.99 90.8389 570.22C82.8662 587.201 68.242 594.691 46.9629 592.687C29.9502 593.272 16.3885 587.656 6.27789 575.837C4.90257 573.609 3.83838 571.268 3.08691 568.816C0.918634 555.324 0.120888 541.75 0.69367 528.096C10.7979 528.096 20.9037 528.096 31.008 528.096C30.7431 538.871 31.008 549.637 31.8057 560.391C34.8483 566.3 40.1677 569.108 47.7606 568.816C52.9939 568.53 57.7803 567.126 62.1201 564.604C64.6345 552.543 65.1674 540.374 63.7155 528.096C61.4196 523.739 58.4935 519.761 54.9403 516.16C42.4429 507.033 29.9438 497.906 17.4463 488.779C4.2564 475.613 -1.32782 460.167 0.69367 442.442C-3.01585 418.393 8.15259 403.182 34.199 396.807C49.262 394.785 63.6214 396.659 77.2772 402.424C87.9877 410.276 93.3055 420.34 93.2321 432.613Z" fill="#F5F4F1"/>
<path fill-rule="evenodd" clip-rule="evenodd" d="M93.232 432.613C94.8116 440.771 95.3429 449.196 94.8275 457.888C84.4217 458.342 74.3175 457.874 64.5132 456.484C74.0861 456.484 83.6591 456.484 93.232 456.484C93.232 448.527 93.232 440.571 93.232 432.613Z" fill="#A4A2A1"/>
<path fill-rule="evenodd" clip-rule="evenodd" d="M788.866 398.914C810.145 398.679 831.419 398.914 852.686 399.616C869.038 402.309 878.346 410.967 880.607 425.592C881.671 444.314 881.671 463.037 880.607 481.759C878.896 492.029 873.312 500.219 863.854 506.331C872.213 534.589 880.19 562.906 887.787 591.283C877.149 591.283 866.514 591.283 855.877 591.283C848.707 565.105 841.527 538.894 834.338 512.65C829.864 510.061 824.813 509.124 819.18 509.842C819.18 536.988 819.18 564.136 819.18 591.283C809.076 591.283 798.97 591.283 788.866 591.283C788.866 527.159 788.866 463.037 788.866 398.914Z" fill="#F3F3F0"/>
<path fill-rule="evenodd" clip-rule="evenodd" d="M819.18 424.188C848.376 418.625 859.013 428.687 851.09 454.378C858.246 479.203 847.609 489.265 819.18 484.567C819.18 464.441 819.18 444.314 819.18 424.188Z" fill="#0A0A0A"/>
<path fill-rule="evenodd" clip-rule="evenodd" d="M335.747 398.914C366.061 398.914 396.375 398.914 426.69 398.914C426.69 407.339 426.69 415.763 426.69 424.188C416.585 424.188 406.479 424.188 396.375 424.188C396.375 479.887 396.375 535.584 396.375 591.283C386.271 591.283 376.165 591.283 366.061 591.283C366.061 535.584 366.061 479.887 366.061 424.188C355.957 424.188 345.851 424.188 335.747 424.188C335.747 415.763 335.747 407.339 335.747 398.914Z" fill="#F5F4F1"/>
<path fill-rule="evenodd" clip-rule="evenodd" d="M693.136 398.914C706.965 398.914 720.791 398.914 734.619 398.914C746.064 463.074 757.765 527.197 769.72 591.283C759.735 591.718 749.898 591.249 740.203 589.879C737.548 576.792 735.155 563.687 733.024 550.562C720.26 550.562 707.496 550.562 694.732 550.562C693.393 563.714 691.533 576.82 689.148 589.879C679.453 591.249 669.616 591.718 659.631 591.283C670.651 527.14 681.82 463.016 693.136 398.914Z" fill="#F3F2F0"/>
<path fill-rule="evenodd" clip-rule="evenodd" d="M712.283 443.847C713.435 444.433 714.232 445.369 714.676 446.655C718.767 473.035 723.82 499.246 729.833 525.287C719.729 527.159 709.623 527.159 699.519 525.287C704.519 498.229 708.773 471.083 712.283 443.847Z" fill="#0D0C0C"/>
<path fill-rule="evenodd" clip-rule="evenodd" d="M898.955 398.914C929.269 398.914 959.584 398.914 989.898 398.914C989.898 407.339 989.898 415.763 989.898 424.188C979.794 424.188 969.688 424.188 959.584 424.188C959.584 479.887 959.584 535.584 959.584 591.283C949.479 591.283 939.373 591.283 929.269 591.283C929.269 535.584 929.269 479.887 929.269 424.188C919.165 424.188 909.059 424.188 898.955 424.188C898.955 415.763 898.955 407.339 898.955 398.914Z" fill="#F4F3F0"/>
<path fill-rule="evenodd" clip-rule="evenodd" d="M220.872 398.914C230.976 398.914 241.082 398.914 251.186 398.914C250.919 452.742 251.186 506.567 251.984 560.391C254.851 566.157 259.902 568.965 267.141 568.816C274.924 569.177 280.508 566.369 283.893 560.391C284.691 506.567 284.958 452.742 284.691 398.914C294.795 398.914 304.901 398.914 315.006 398.914C315.272 452.742 315.006 506.567 314.208 560.391C309.796 583.181 294.374 593.946 267.939 592.687C242.798 593.48 227.375 583.182 221.669 561.795C220.872 507.504 220.605 453.209 220.872 398.914Z" fill="#F2F1EF"/>
<path fill-rule="evenodd" clip-rule="evenodd" d="M583.048 396.105C595.483 395.669 607.716 396.84 619.744 399.616C633.145 406.096 640.324 416.159 641.283 429.805C642.081 439.154 642.346 448.515 642.081 457.888C631.977 457.888 621.871 457.888 611.767 457.888C612.399 447.002 611.601 436.236 609.374 425.592C602.347 421.62 594.634 420.449 586.239 422.082C583.956 422.735 582.095 423.906 580.655 425.592C578.815 448.403 578.017 471.337 578.261 494.396C578.528 516.395 578.793 538.392 579.059 560.391C583.933 567.602 591.113 570.175 600.598 568.114C605.375 567.544 608.833 565.438 610.969 561.795C611.767 543.547 612.033 525.293 611.767 507.033C605.916 507.033 600.067 507.033 594.216 507.033C594.216 499.076 594.216 491.12 594.216 483.163C610.171 483.163 626.126 483.163 642.081 483.163C642.348 508.909 642.081 534.653 641.283 560.391C637.331 583.289 622.174 594.053 595.812 592.687C568.61 594.71 552.922 583.945 548.745 560.391C547.681 515.926 547.681 471.462 548.745 426.997C551.977 409.411 563.411 399.113 583.048 396.105Z" fill="#F5F4F2"/>
<path fill-rule="evenodd" clip-rule="evenodd" d="M69.2997 624.982C77.6952 624.554 85.9375 625.023 94.0298 626.386C135.573 702.493 192.744 768.254 265.545 823.67C333.615 875.531 409.401 916.954 492.902 947.938C620.357 900.755 727.786 830.08 815.192 735.91C844.86 701.976 870.123 665.468 890.977 626.386C898.885 624.991 906.862 624.523 914.91 624.982C876.029 701.594 821.251 768.292 750.574 825.074C674.18 886.103 588.024 934.077 492.105 969C374.431 925.534 272.053 862.817 184.973 780.843C137.649 734.086 99.0907 682.133 69.2997 624.982Z" fill="#F4F3F1"/>
<path fill-rule="evenodd" clip-rule="evenodd" d="M806.417 661.49C805.815 663.959 804.751 666.3 803.226 668.511C596.346 670.15 389.464 670.383 182.58 669.213C180.762 666.714 179.167 664.139 177.793 661.49C178.288 659.752 179.086 659.752 180.186 661.49C181.314 663.71 182.644 665.817 184.175 667.809C389.995 668.979 595.813 668.746 801.63 667.107C802.484 664.634 804.079 662.763 806.417 661.49Z" fill="#EF111E"/>
<path fill-rule="evenodd" clip-rule="evenodd" d="M806.417 661.49C804.079 662.763 802.484 664.634 801.63 667.107C595.814 668.746 389.995 668.979 184.175 667.809C182.644 665.817 181.315 663.71 180.187 661.49C179.086 659.752 178.288 659.752 177.793 661.49C175.82 659.433 174.224 657.093 173.007 654.47C385.099 652.601 597.299 652.601 809.608 654.47C808.082 656.681 807.018 659.022 806.417 661.49Z" fill="#C70D18"/>
<path fill-rule="evenodd" clip-rule="evenodd" d="M806.417 661.49C807.018 659.022 808.082 656.681 809.608 654.47C597.299 652.601 385.099 652.601 173.007 654.47C172.83 653.603 172.298 652.901 171.411 652.363C385.738 651.427 600.067 651.427 814.394 652.363C811.896 655.63 809.238 658.671 806.417 661.49Z" fill="#F60F1C"/>
</svg>
