<svg width="915" height="1085" viewBox="0 0 915 1085" fill="none" xmlns="http://www.w3.org/2000/svg">
<path fill-rule="evenodd" clip-rule="evenodd" d="M915 54.1198C913.504 53.8546 912.154 54.1926 910.952 55.1318C912.298 228.387 913.648 401.443 915 574.302C904.892 719.714 845.52 840.821 736.883 937.619C654.34 1006.39 560.895 1055.31 456.551 1084.36C380.829 1062.94 310.323 1030.22 245.037 986.197C215.94 987.049 186.929 989.411 158.003 993.281C145.43 993.327 133.285 994.677 121.57 997.329C113.697 996.867 105.936 997.543 98.2935 999.353C95.7492 998.644 95.0732 997.294 96.2694 995.305C120.528 973.409 143.804 950.47 166.099 926.487C68.4447 835.749 13.4572 723.752 1.13882 590.494C0.126788 411.029 -0.211229 231.562 0.126788 52.0957C256.004 -5.33479 513.733 -14.443 773.316 24.771C821.181 33.0737 868.408 42.8559 915 54.1198Z" fill="#E1DACD"/>
<path fill-rule="evenodd" clip-rule="evenodd" d="M848.206 102.697C847.058 104.559 848.406 105.235 852.254 104.721C851.58 260.913 852.256 416.765 854.278 572.278C844.872 710.184 786.175 821.845 678.185 907.258C610.636 959.586 535.746 997.369 453.515 1020.61C411.334 1007.27 370.853 990.067 332.072 968.992C330.005 967.976 329.667 966.628 331.06 964.944C439.646 919.071 533.429 852.277 612.403 764.563C651.751 718.26 679.412 665.635 695.39 606.686C706.091 561.965 692.934 526.544 655.921 500.424C619.704 482.09 581.247 471.633 540.549 469.051C530.231 466.102 519.437 464.752 508.165 465.003C475.905 464.134 445.544 456.376 417.082 441.726C403.748 430.964 399.361 417.134 403.926 400.233C411.115 386.303 419.885 373.483 430.238 361.776C464.973 329.741 503.092 302.417 544.598 279.802C641.372 228.719 738.526 178.791 836.061 130.022C815.163 124.385 794.248 119.663 773.316 115.853C703.397 150.477 633.229 184.548 562.814 218.068C560.393 217.368 560.393 216.356 562.814 215.032C620.166 180.963 676.839 145.88 732.835 109.781C712.12 105.156 691.206 102.458 670.089 101.685C622.449 131.242 573.871 159.241 524.357 185.683C523.007 185.683 522.333 185.009 522.333 183.659C560.11 155.982 597.219 127.308 633.656 97.6369C610.835 94.447 587.896 93.773 564.838 95.6129C492.193 145.32 420.677 196.595 350.288 249.441C318.154 277.525 288.806 308.224 262.242 341.535C240.139 373.604 224.621 408.689 215.689 446.786C206.425 521.178 237.797 568.744 309.807 589.482C360.991 598.785 412.269 607.555 463.635 615.795C480.362 619.602 494.869 627.36 507.153 639.071C514.852 652.501 516.2 666.669 511.201 681.576C499.52 708.798 482.315 732.075 459.587 751.406C424.071 781.486 385.276 806.786 343.204 827.308C353.998 792.225 364.795 757.14 375.589 722.058C321.583 774.825 267.946 827.786 214.677 880.946C212.653 882.296 210.628 882.296 208.604 880.946C120.35 801.923 71.7723 703.082 62.8725 584.422C62.8725 423.848 62.8725 263.271 62.8725 102.697C66.198 102.657 68.8961 104.007 70.9687 106.745C73.5899 105.535 76.2879 104.523 79.0649 103.709C77.0409 103.035 75.0168 102.359 72.9928 101.685C75.4965 101.215 77.5206 100.203 79.0649 98.6489C271.225 60.9833 464.858 51.8751 659.969 71.3242C723.674 77.7668 786.419 88.2251 848.206 102.697Z" fill="#2D2D2C"/>
<path fill-rule="evenodd" clip-rule="evenodd" d="M522.333 183.659C522.333 185.009 523.007 185.683 524.357 185.683C518.344 191.045 511.597 194.755 504.116 196.816C509.944 191.988 516.016 187.602 522.333 183.659Z" fill="#595549"/>
<path fill-rule="evenodd" clip-rule="evenodd" d="M79.065 98.649C77.5206 100.203 75.4966 101.215 72.9928 101.685C75.0169 102.359 77.0409 103.035 79.065 103.709C76.288 104.523 73.5899 105.535 70.9688 106.745C68.8961 104.007 66.1981 102.657 62.8725 102.697C62.8725 263.271 62.8725 423.848 62.8725 584.422C60.8505 423.514 60.1745 262.263 60.8485 100.673C66.9571 100.26 73.0292 99.5861 79.065 98.649Z" fill="#3D3934"/>
<path fill-rule="evenodd" clip-rule="evenodd" d="M848.206 102.697C850.23 102.697 852.254 102.697 854.278 102.697C854.278 259.223 854.278 415.751 854.278 572.278C852.256 416.765 851.58 260.913 852.254 104.721C848.406 105.235 847.058 104.559 848.206 102.697Z" fill="#21211C"/>
<path fill-rule="evenodd" clip-rule="evenodd" d="M508.165 465.003C519.437 464.752 530.231 466.102 540.55 469.051C529.314 468.996 518.52 467.646 508.165 465.003Z" fill="#5F5D56"/>
<path fill-rule="evenodd" clip-rule="evenodd" d="M158.003 993.281C146.316 996.208 134.172 997.556 121.57 997.329C133.285 994.677 145.43 993.327 158.003 993.281Z" fill="#6A6761"/>
</svg>
